<svg width="26" height="26" viewBox="0 0 26 26" fill="none" xmlns="http://www.w3.org/2000/svg">
<path d="M23.6318 6.04218C23.8214 6.12393 23.9829 6.25943 24.0963 6.43193C24.2097 6.60442 24.2701 6.80637 24.27 7.01281V18.9872C24.2693 19.1933 24.2084 19.3947 24.0948 19.5667C23.9813 19.7386 23.8199 19.8737 23.6306 19.9552C23.4414 20.0368 23.2324 20.0613 23.0294 20.0257C22.8264 19.9901 22.6382 19.896 22.4879 19.755L16.1486 13.7678C16.0441 13.669 15.9609 13.55 15.904 13.418C15.8472 13.286 15.8178 13.1437 15.8178 13C15.8178 12.8563 15.8472 12.714 15.904 12.582C15.9609 12.45 16.0441 12.331 16.1486 12.2322L22.4879 6.24504C22.6379 6.10316 22.8262 6.00833 23.0295 5.97228C23.2328 5.93623 23.4422 5.96053 23.6318 6.04218ZM1.73 18.9872V7.01281C1.73069 6.80671 1.79157 6.60531 1.90515 6.43333C2.01874 6.26136 2.18007 6.1263 2.36935 6.04476C2.55863 5.96321 2.76761 5.93872 2.97061 5.9743C3.17361 6.00988 3.3618 6.10398 3.51206 6.24504L9.85144 12.2322C9.95589 12.331 10.0391 12.45 10.096 12.582C10.1528 12.714 10.1822 12.8563 10.1822 13C10.1822 13.1437 10.1528 13.286 10.096 13.418C10.0391 13.55 9.95589 13.669 9.85144 13.7678L3.51206 19.755C3.36203 19.8967 3.17379 19.9913 2.97056 20.0273C2.76734 20.0632 2.55804 20.0389 2.36851 19.9572C2.17897 19.8755 2.0175 19.7402 1.90403 19.5678C1.79056 19.3954 1.73006 19.1936 1.73 18.9872ZM3.84312 9.46403V16.536L7.58758 13L3.84312 9.46403ZM18.4124 13L22.1569 16.536V9.46403L18.4124 13ZM13 7.365C13.2802 7.365 13.549 7.47631 13.7471 7.67446C13.9452 7.8726 14.0566 8.14134 14.0566 8.42156V9.12594C14.0566 9.40615 13.9452 9.67489 13.7471 9.87304C13.549 10.0712 13.2802 10.1825 13 10.1825C12.7198 10.1825 12.451 10.0712 12.2529 9.87304C12.0547 9.67489 11.9434 9.40615 11.9434 9.12594V8.42156C11.9434 8.14134 12.0547 7.8726 12.2529 7.67446C12.451 7.47631 12.7198 7.365 13 7.365ZM14.0566 4.19531V4.89969C14.0566 5.1799 13.9452 5.44864 13.7471 5.64679C13.549 5.84493 13.2802 5.95625 13 5.95625C12.7198 5.95625 12.451 5.84493 12.2529 5.64679C12.0547 5.44864 11.9434 5.1799 11.9434 4.89969V4.19531C11.9434 3.91509 12.0547 3.64635 12.2529 3.44821C12.451 3.25006 12.7198 3.13875 13 3.13875C13.2802 3.13875 13.549 3.25006 13.7471 3.44821C13.9452 3.64635 14.0566 3.91509 14.0566 4.19531ZM14.0566 12.6478V13.3522C14.0566 13.6324 13.9452 13.9011 13.7471 14.0993C13.549 14.2974 13.2802 14.4087 13 14.4087C12.7198 14.4087 12.451 14.2974 12.2529 14.0993C12.0547 13.9011 11.9434 13.6324 11.9434 13.3522V12.6478C11.9434 12.3676 12.0547 12.0989 12.2529 11.9007C12.451 11.7026 12.7198 11.5912 13 11.5912C13.2802 11.5912 13.549 11.7026 13.7471 11.9007C13.9452 12.0989 14.0566 12.3676 14.0566 12.6478ZM13 15.8175C13.2802 15.8175 13.549 15.9288 13.7471 16.127C13.9452 16.3251 14.0566 16.5938 14.0566 16.8741V17.5784C14.0566 17.8587 13.9452 18.1274 13.7471 18.3255C13.549 18.5237 13.2802 18.635 13 18.635C12.7198 18.635 12.451 18.5237 12.2529 18.3255C12.0547 18.1274 11.9434 17.8587 11.9434 17.5784V16.8741C11.9434 16.5938 12.0547 16.3251 12.2529 16.127C12.451 15.9288 12.7198 15.8175 13 15.8175ZM13 20.0437C13.2802 20.0437 13.549 20.1551 13.7471 20.3532C13.9452 20.5514 14.0566 20.8201 14.0566 21.1003V21.8047C14.0566 22.0849 13.9452 22.3536 13.7471 22.5518C13.549 22.7499 13.2802 22.8612 13 22.8612C12.7198 22.8612 12.451 22.7499 12.2529 22.5518C12.0547 22.3536 11.9434 22.0849 11.9434 21.8047V21.1003C11.9434 20.8201 12.0547 20.5514 12.2529 20.3532C12.451 20.1551 12.7198 20.0437 13 20.0437Z" fill="#7C838B"/>
</svg>
