<svg width="19" height="19" viewBox="0 0 19 19" fill="none" xmlns="http://www.w3.org/2000/svg">
<path d="M9.5 0C12.1253 0 14.3649 0.950913 16.219 2.85274C18.073 4.75456 19 7.04436 19 9.72213C19 11.8522 18.3919 13.7616 17.1756 15.4504C15.9594 17.1393 14.402 18.3184 12.5035 18.9878C12.0882 19.0487 11.8806 18.8813 11.8806 18.4857V15.8384C11.8806 15.0168 11.6581 14.4082 11.2131 14.0127C12.5183 13.8605 13.564 13.4497 14.3501 12.7803C15.1362 12.1108 15.5293 10.9393 15.5293 9.26569C15.5293 8.2311 15.203 7.34865 14.5504 6.61835C14.8767 5.82719 14.847 4.95996 14.4614 4.01666C13.9274 3.86451 13.0671 4.19923 11.8806 5.02082C11.1093 4.80782 10.3084 4.70131 9.47775 4.70131C8.64715 4.70131 7.86105 4.80782 7.11944 5.02082C6.58548 4.65567 6.10343 4.38941 5.6733 4.22205C5.24317 4.05469 4.93911 3.98623 4.76112 4.01666H4.49415C4.13817 4.95996 4.10851 5.82719 4.40515 6.61835C3.75254 7.34865 3.42623 8.2311 3.42623 9.26569C3.42623 10.9393 3.8267 12.1108 4.62763 12.7803C5.42857 13.4497 6.46682 13.8605 7.74239 14.0127C7.41608 14.3169 7.22326 14.7582 7.16393 15.3363C5.91803 15.884 4.99844 15.6102 4.40515 14.5147C4.04918 13.9061 3.55972 13.5714 2.93677 13.5106C2.87744 13.5106 2.81069 13.5182 2.73653 13.5334C2.66237 13.5486 2.58821 13.6019 2.51405 13.6931C2.43989 13.7844 2.56596 13.9214 2.89227 14.1039C3.30757 14.3169 3.64871 14.7886 3.91569 15.5189C3.94536 15.5798 3.97502 15.6482 4.00468 15.7243C4.03435 15.8004 4.13076 15.9449 4.29391 16.1579C4.45706 16.3709 4.64988 16.5307 4.87237 16.6372C5.09485 16.7437 5.39891 16.8426 5.78454 16.9339C6.17018 17.0251 6.61514 16.9947 7.11944 16.8426V18.4857C7.11944 18.8813 6.91179 19.0487 6.49649 18.9878C4.59797 18.3184 3.04059 17.1393 1.82436 15.4504C0.608119 13.7616 0 11.8522 0 9.72213C0 7.04436 0.92701 4.75456 2.78103 2.85274C4.63505 0.950913 6.87471 0 9.5 0Z" fill="#7C838B"/>
</svg>
