<svg width="19" height="19" viewBox="0 0 19 19" fill="none" xmlns="http://www.w3.org/2000/svg">
<path d="M15 0C17.2091 0 19 1.79086 19 4V15C19 17.2091 17.2091 19 15 19H4C1.79086 19 1.61066e-08 17.2091 0 15V4C0 1.79086 1.79086 1.61064e-08 4 0H15ZM4.84668 7.39258C4.76414 7.39258 4.69796 7.42171 4.64844 7.47949C4.59908 7.53718 4.57422 7.59912 4.57422 7.66504V14.3506C4.57422 14.4331 4.59891 14.4993 4.64844 14.5488C4.69796 14.5984 4.76414 14.623 4.84668 14.623H6.72852C6.79447 14.623 6.85634 14.5982 6.91406 14.5488C6.97184 14.4993 7.00098 14.4331 7.00098 14.3506V7.66504C7.00098 7.59904 6.97179 7.53725 6.91406 7.47949C6.85628 7.42171 6.79455 7.39258 6.72852 7.39258H4.84668ZM12.2754 7.21875C11.483 7.21875 10.8558 7.44202 10.3936 7.8877C10.3936 7.80515 10.3847 7.74688 10.3682 7.71387V7.59082C10.3517 7.52499 10.3233 7.4754 10.2822 7.44238C10.241 7.40938 10.1871 7.39259 10.1211 7.39258H8.28906C8.22303 7.39258 8.16032 7.42171 8.10254 7.47949C8.04502 7.53716 8.0166 7.59915 8.0166 7.66504V14.3506C8.0166 14.4331 8.04485 14.4993 8.10254 14.5488C8.16032 14.5984 8.22303 14.623 8.28906 14.623H10.1709C10.2531 14.623 10.3187 14.5981 10.3682 14.5488C10.4177 14.4993 10.4434 14.4331 10.4434 14.3506V10.7354C10.4434 10.2568 10.5334 9.88521 10.7148 9.62109C10.8964 9.35697 11.2105 9.22461 11.6562 9.22461C12.0193 9.22461 12.2673 9.31114 12.3994 9.48438C12.5315 9.65771 12.5977 9.92686 12.5977 10.29V14.3506C12.5977 14.4331 12.6259 14.4993 12.6836 14.5488C12.7412 14.5982 12.8033 14.6229 12.8691 14.623H14.8008C14.8667 14.623 14.9286 14.5982 14.9863 14.5488C15.0441 14.4993 15.0732 14.4331 15.0732 14.3506V9.84375C15.0732 8.98555 14.8261 8.33339 14.3311 7.8877C13.8358 7.44199 13.1503 7.21876 12.2754 7.21875ZM5.77539 4.07422C5.42048 4.07422 5.11871 4.19771 4.87109 4.44531C4.62347 4.69293 4.5 4.99468 4.5 5.34961C4.50002 5.7044 4.62364 6.00981 4.87109 6.26562C5.11872 6.5215 5.42047 6.64941 5.77539 6.64941C6.1302 6.64938 6.43114 6.52139 6.67871 6.26562C6.92632 6.00977 7.05076 5.7045 7.05078 5.34961C7.05078 4.99468 6.92633 4.69293 6.67871 4.44531C6.43119 4.19798 6.13007 4.07425 5.77539 4.07422Z" fill="#7C838B"/>
</svg>
