<svg width="23" height="23" viewBox="0 0 23 23" fill="none" xmlns="http://www.w3.org/2000/svg">
<path d="M11.5 1.5C14.6632 1.5 12.3036 9.55985 12.3036 9.55985C12.3036 9.55985 16.3344 2.19223 18.5711 4.42893C20.8078 6.66564 13.4401 10.6964 13.4401 10.6964C13.4401 10.6964 21.5 8.33682 21.5 11.5C21.5 14.6632 13.4401 12.3036 13.4401 12.3036C13.4401 12.3036 20.8078 16.3344 18.5711 18.5711C16.3344 20.8078 12.3036 13.4401 12.3036 13.4401C12.3036 13.4401 14.6632 21.5 11.5 21.5C8.33682 21.5 10.6964 13.4401 10.6964 13.4401C10.6964 13.4401 6.66564 20.8078 4.42893 18.5711C2.19223 16.3344 9.55985 12.3036 9.55985 12.3036C9.55985 12.3036 1.5 14.6632 1.5 11.5C1.5 8.33682 9.55985 10.6964 9.55985 10.6964C9.55985 10.6964 2.19223 6.66564 4.42893 4.42893C6.66564 2.19223 10.6964 9.55985 10.6964 9.55985C10.6964 9.55985 8.33682 1.5 11.5 1.5Z" fill="white"/>
</svg>
