<svg width="30" height="30" viewBox="0 0 30 30" fill="none" xmlns="http://www.w3.org/2000/svg">
<path d="M15 3.90039C15.4582 3.90039 15.8227 4.047 16.1045 4.30762C16.384 4.56625 16.5761 4.93058 16.7021 5.35645C16.9537 6.20662 16.9539 7.33105 16.8467 8.44238C16.7391 9.55643 16.5225 10.6695 16.333 11.5029C16.2764 11.752 16.2201 11.9758 16.1719 12.168C16.2736 11.998 16.3942 11.8012 16.5303 11.585C16.9856 10.8617 17.6194 9.92137 18.3311 9.05762C19.0411 8.19589 19.8361 7.40082 20.6152 6.97754C21.0055 6.76551 21.3987 6.64344 21.7793 6.6582C22.1629 6.67311 22.5246 6.82731 22.8486 7.15137C23.1727 7.47543 23.3269 7.83708 23.3418 8.2207C23.3566 8.60128 23.2345 8.99445 23.0225 9.38477C22.5992 10.1639 21.8041 10.9589 20.9424 11.6689C20.0786 12.3806 19.1383 13.0144 18.415 13.4697C18.1987 13.6059 18.0011 13.7254 17.8311 13.8271C18.0233 13.7789 18.2477 13.7237 18.4971 13.667C19.3305 13.4775 20.4436 13.2609 21.5576 13.1533C22.669 13.0461 23.7934 13.0463 24.6436 13.2979C25.0694 13.4239 25.4338 13.616 25.6924 13.8955C25.953 14.1773 26.0996 14.5418 26.0996 15C26.0996 15.4582 25.953 15.8227 25.6924 16.1045C25.4338 16.384 25.0694 16.5761 24.6436 16.7021C23.7934 16.9537 22.669 16.9539 21.5576 16.8467C20.4436 16.7391 19.3305 16.5225 18.4971 16.333C18.2476 16.2763 18.0234 16.2202 17.8311 16.1719C18.0012 16.2737 18.1985 16.394 18.415 16.5303C19.1383 16.9856 20.0786 17.6194 20.9424 18.3311C21.8041 19.0411 22.5992 19.8361 23.0225 20.6152C23.2345 21.0055 23.3566 21.3987 23.3418 21.7793C23.3269 22.1629 23.1727 22.5246 22.8486 22.8486C22.5246 23.1727 22.1629 23.3269 21.7793 23.3418C21.3987 23.3566 21.0055 23.2345 20.6152 23.0225C19.8361 22.5992 19.0411 21.8041 18.3311 20.9424C17.6194 20.0786 16.9856 19.1383 16.5303 18.415C16.394 18.1985 16.2737 18.0012 16.1719 17.8311C16.2202 18.0234 16.2763 18.2476 16.333 18.4971C16.5225 19.3305 16.7391 20.4436 16.8467 21.5576C16.9539 22.669 16.9537 23.7934 16.7021 24.6436C16.5761 25.0694 16.384 25.4338 16.1045 25.6924C15.8227 25.953 15.4582 26.0996 15 26.0996C14.5418 26.0996 14.1773 25.953 13.8955 25.6924C13.616 25.4338 13.4239 25.0694 13.2979 24.6436C13.0463 23.7934 13.0461 22.669 13.1533 21.5576C13.2609 20.4436 13.4775 19.3305 13.667 18.4971C13.7237 18.2477 13.7789 18.0233 13.8271 17.8311C13.7254 18.0011 13.6059 18.1987 13.4697 18.415C13.0144 19.1383 12.3806 20.0786 11.6689 20.9424C10.9589 21.8041 10.1639 22.5992 9.38477 23.0225C8.99445 23.2345 8.60128 23.3566 8.2207 23.3418C7.83708 23.3269 7.47543 23.1727 7.15137 22.8486C6.82731 22.5246 6.67311 22.1629 6.6582 21.7793C6.64344 21.3987 6.76551 21.0055 6.97754 20.6152C7.40082 19.8361 8.19589 19.0411 9.05762 18.3311C9.92137 17.6194 10.8617 16.9856 11.585 16.5303C11.8012 16.3942 11.998 16.2736 12.168 16.1719C11.9758 16.2201 11.752 16.2764 11.5029 16.333C10.6695 16.5225 9.55643 16.7391 8.44238 16.8467C7.33105 16.9539 6.20662 16.9537 5.35645 16.7021C4.93058 16.5761 4.56625 16.384 4.30762 16.1045C4.047 15.8227 3.90039 15.4582 3.90039 15C3.90039 14.5418 4.047 14.1773 4.30762 13.8955C4.56625 13.616 4.93058 13.4239 5.35645 13.2979C6.20662 13.0463 7.33105 13.0461 8.44238 13.1533C9.55643 13.2609 10.6695 13.4775 11.5029 13.667C11.7519 13.7236 11.9759 13.7789 12.168 13.8271C11.9981 13.7255 11.801 13.6057 11.585 13.4697C10.8617 13.0144 9.92137 12.3806 9.05762 11.6689C8.19589 10.9589 7.40082 10.1639 6.97754 9.38477C6.76551 8.99445 6.64344 8.60128 6.6582 8.2207C6.67311 7.83708 6.82731 7.47543 7.15137 7.15137C7.47543 6.82731 7.83708 6.67311 8.2207 6.6582C8.60128 6.64344 8.99445 6.76551 9.38477 6.97754C10.1639 7.40082 10.9589 8.19589 11.6689 9.05762C12.3806 9.92137 13.0144 10.8617 13.4697 11.585C13.6057 11.801 13.7255 11.9981 13.8271 12.168C13.7789 11.9759 13.7236 11.7519 13.667 11.5029C13.4775 10.6695 13.2609 9.55643 13.1533 8.44238C13.0461 7.33105 13.0463 6.20662 13.2979 5.35645C13.4239 4.93058 13.616 4.56625 13.8955 4.30762C14.1773 4.047 14.5418 3.90039 15 3.90039Z" fill="white" stroke="white" stroke-width="0.2"/>
</svg>
