<svg width="23" height="23" viewBox="0 0 23 23" fill="none" xmlns="http://www.w3.org/2000/svg">
<path d="M10.2627 1.33008L11.4277 2.05762H11.4287C12.8157 2.90994 13.9064 4.18877 14.5586 5.70898C14.7178 5.37108 14.8884 5.03835 15.0449 4.71289L15.1689 4.45312L15.3691 4.66113L16.2773 5.60547C18.333 7.74338 20.3096 10.9707 20.3096 14.1328C20.3095 16.243 19.6838 17.9846 18.541 19.2578C17.3982 20.5308 15.754 21.3193 13.751 21.5508L12.4629 21.6982L12.4502 21.7002H12.4365L10.7646 21.666L10.7529 21.665L9.33984 21.5508H9.33301C6.87818 21.2672 4.46057 19.5635 3.50586 17.0703C2.50172 14.4446 3.22977 11.2983 6.40234 8.43848C8.43563 6.60603 9.518 4.22717 9.95996 1.46875L10.0068 1.1709L10.2627 1.33008ZM9.35547 21.3516L10.7686 21.4658H10.7695L9.35645 21.3516C9.34739 21.3505 9.33815 21.3487 9.3291 21.3477C9.33792 21.3487 9.34665 21.3505 9.35547 21.3516ZM11.2656 5.75293C10.6521 7.54475 9.47078 9.18342 8.08887 10.4287C6.87269 11.5249 6.19626 12.5902 5.89746 13.5732C5.59829 14.5579 5.6819 15.4498 5.96484 16.1885C6.38411 17.2851 7.285 18.1781 8.34473 18.6836C8.89886 18.9478 11.2555 19.7466 14.4922 18.9053C15.6129 18.6139 16.4331 18.0218 16.9697 17.2012C17.5038 16.3842 17.7471 15.3557 17.7471 14.2051C17.7467 12.2363 16.6093 10.3274 15.5127 8.86621L15.3057 8.58984L15.1689 8.90723C14.7963 9.77574 14.0633 10.1356 13.2266 10.5596V9.50391C13.2264 8.28623 12.7514 6.80525 11.5947 5.6748L11.3682 5.45312L11.2656 5.75293ZM6.42969 16.6934C6.52887 16.8631 6.64108 17.0256 6.76367 17.1807C6.64102 17.0256 6.52898 16.8631 6.42969 16.6934ZM6.40527 16.6504C6.37695 16.6006 6.34839 16.5509 6.32227 16.5C6.30792 16.472 6.29493 16.4434 6.28125 16.415C6.31979 16.4949 6.36144 16.5732 6.40527 16.6504ZM6.15234 16.1172C6.18793 16.2103 6.2278 16.3016 6.27051 16.3916C6.22772 16.3015 6.18696 16.2103 6.15137 16.1172H6.15234ZM20.1045 13.8428L20.0908 13.5898C20.0901 13.5804 20.0886 13.571 20.0879 13.5615C20.0949 13.6553 20.1009 13.749 20.1045 13.8428ZM13.0186 9.22559C13.0242 9.31975 13.0273 9.4126 13.0273 9.50391V9.50488C13.0273 9.41359 13.0242 9.32074 13.0186 9.22656V9.22559ZM6.53613 8.58691C6.62505 8.50678 6.71149 8.42491 6.79688 8.34277C6.71152 8.42495 6.62504 8.50679 6.53613 8.58691ZM6.88965 8.25195C6.94458 8.19783 6.99929 8.14383 7.05273 8.08887C6.99932 8.14386 6.94455 8.19781 6.88965 8.25195ZM7.14648 7.99023C7.20769 7.92567 7.26793 7.86062 7.32715 7.79492C7.26798 7.86065 7.20764 7.92563 7.14648 7.99023ZM7.60254 7.47754C7.52934 7.56568 7.4535 7.65202 7.37695 7.73828C7.55963 7.53269 7.73265 7.32178 7.89648 7.10547C7.8013 7.23101 7.7039 7.35547 7.60254 7.47754ZM7.93848 7.04883C8.02996 6.92633 8.1204 6.80356 8.20605 6.67773V6.67676C8.12026 6.80281 8.03019 6.92616 7.93848 7.04883Z" fill="white"/>
</svg>
