<svg width="30" height="30" viewBox="0 0 30 30" fill="none" xmlns="http://www.w3.org/2000/svg">
<path d="M13.0056 2.15918L14.4832 3.08105H14.4822C16.2614 4.17451 17.655 5.82458 18.4705 7.78711C18.6856 7.32381 18.9201 6.86806 19.1355 6.41992L19.2605 6.16016L19.4607 6.36816L20.6111 7.56445C23.2092 10.2667 25.7009 14.339 25.701 18.3223C25.7009 20.9835 24.9112 23.1756 23.4744 24.7764C22.0378 26.3767 19.9695 27.3693 17.4441 27.6611L15.8142 27.8486L15.8006 27.8506H15.7869L13.6707 27.8066H13.659V27.8057L11.8699 27.6621L11.8631 27.6611C8.8698 27.3155 5.91974 25.2925 4.64626 22.3145L4.52908 22.0234C3.26716 18.7242 4.17748 14.7632 8.1824 11.1533C10.7675 8.82344 12.1419 5.79915 12.7029 2.29785L12.7508 2L13.0056 2.15918ZM14.5603 7.70605C13.7801 9.98445 12.2793 12.0668 10.5242 13.6484C8.98969 15.0316 8.1402 16.3722 7.7654 17.6055C7.39015 18.8405 7.49503 19.957 7.84939 20.8818C8.37479 22.2561 9.50437 23.3779 10.8357 24.0127C11.5285 24.3429 14.4993 25.3508 18.5828 24.2891C19.9898 23.9232 21.0168 23.1812 21.6883 22.1543C22.3572 21.131 22.6638 19.8402 22.6638 18.3906C22.6638 15.9163 21.233 13.511 19.8455 11.6621L19.6385 11.3857L19.5017 11.7031C19.01 12.8491 18.0285 13.3101 16.9402 13.8623V12.4385C16.9402 10.9092 16.343 9.0483 14.8894 7.62793L14.6629 7.40625L14.5603 7.70605ZM18.533 24.0957L18.158 24.1885C17.9124 24.2457 17.6708 24.2941 17.4343 24.3369C17.7899 24.2726 18.1562 24.1934 18.532 24.0957H18.533ZM11.4285 24.0293C11.3932 24.0175 11.3594 24.0056 11.3269 23.9941C11.3594 24.0057 11.3933 24.0174 11.4285 24.0293ZM10.9217 23.832C10.9717 23.8559 11.0353 23.8826 11.1111 23.9131C11.0955 23.9068 11.0797 23.9025 11.0652 23.8965L10.9217 23.832ZM16.74 12.4385C16.74 12.3692 16.7396 12.2992 16.7371 12.2285C16.7397 12.2992 16.741 12.3692 16.741 12.4385V14.1885L16.74 14.1895V12.4385Z" fill="white"/>
</svg>
