<svg width="23" height="23" viewBox="0 0 23 23" fill="none" xmlns="http://www.w3.org/2000/svg">
<path d="M10.1279 1.33008L11.293 2.05762H11.2939C12.6809 2.90997 13.7717 4.18876 14.4238 5.70898C14.5831 5.37105 14.7537 5.03838 14.9102 4.71289L15.0342 4.45312L15.2344 4.66113L16.1426 5.60547C18.1982 7.74338 20.1748 10.9708 20.1748 14.1328C20.1747 16.243 19.5489 17.9846 18.4062 19.2578C17.2635 20.5309 15.6193 21.3193 13.6162 21.5508L12.3281 21.6982L12.3154 21.7002H12.3018L10.6299 21.666L10.6182 21.665L9.20508 21.5508H9.19824C6.74329 21.2673 4.32588 19.5636 3.37109 17.0703C2.36685 14.4445 3.09475 11.2984 6.26758 8.43848C8.30081 6.60603 9.38324 4.22715 9.8252 1.46875L9.87207 1.1709L10.1279 1.33008ZM13.5928 21.3516L13.9453 21.3047C13.9486 21.3042 13.9518 21.3032 13.9551 21.3027C13.8358 21.321 13.715 21.3374 13.5928 21.3516ZM11.1309 5.75293C10.5174 7.54461 9.33587 9.18345 7.9541 10.4287C6.738 11.5249 6.06152 12.5903 5.7627 13.5732C5.46349 14.558 5.54708 15.4498 5.83008 16.1885C6.24941 17.2853 7.15002 18.1781 8.20996 18.6836C8.76411 18.9478 11.1206 19.7468 14.3574 18.9053C15.478 18.6139 16.2984 18.0218 16.835 17.2012C17.3689 16.3842 17.6123 15.3556 17.6123 14.2051C17.612 12.2363 16.4745 10.3274 15.3779 8.86621L15.1709 8.58984L15.0342 8.90723C14.6615 9.77562 13.9284 10.1357 13.0918 10.5596V9.50391C13.0916 8.28623 12.6166 6.80525 11.46 5.6748L11.2334 5.45312L11.1309 5.75293ZM17.4131 14.2051C17.4131 14.2344 17.4105 14.2637 17.4102 14.293C17.4104 14.2641 17.4121 14.2351 17.4121 14.2061C17.4121 14.0874 17.4077 13.9689 17.3994 13.8506L17.4004 13.8496C17.4087 13.9679 17.4131 14.0864 17.4131 14.2051ZM12.8926 10.8867C13.1531 10.7512 13.4154 10.6246 13.668 10.4893C13.4151 10.6249 13.1524 10.7519 12.8916 10.8877V9.50488L12.8926 9.50391V10.8867ZM15.998 5.74414C16.2509 6.00716 16.5028 6.28673 16.749 6.58008C16.627 6.43469 16.504 6.2925 16.3799 6.1543L15.999 5.74414L15.0898 4.7998L15.998 5.74414Z" fill="white"/>
</svg>
