<svg width="26" height="26" viewBox="0 0 26 26" fill="none" xmlns="http://www.w3.org/2000/svg">
<path d="M3.98401 11.873V20.889H8.49201V11.873H3.98401ZM10.746 5.111V20.889H15.254V5.111H10.746ZM17.508 14.127V20.889H22.016V14.127H17.508ZM22.016 23.143H3.98401C3.36416 23.143 2.83335 22.9221 2.39156 22.4803C1.94978 22.0385 1.72926 21.5081 1.73001 20.889V11.873C1.73001 11.2532 1.9509 10.7223 2.39269 10.2806C2.83447 9.83877 3.36491 9.61825 3.98401 9.619H8.49201V5.111C8.49201 4.49115 8.71291 3.96034 9.15469 3.51855C9.59647 3.07677 10.1269 2.85625 10.746 2.857H15.254C15.8739 2.857 16.4047 3.0779 16.8465 3.51968C17.2882 3.96146 17.5088 4.49191 17.508 5.111V11.873H22.016C22.6359 11.873 23.1667 12.0939 23.6085 12.5357C24.0502 12.9775 24.2708 13.5079 24.27 14.127V20.889C24.27 21.5089 24.0491 22.0397 23.6073 22.4815C23.1656 22.9232 22.6351 23.1438 22.016 23.143Z" fill="#F5F5F7"/>
</svg>
