<svg width="26" height="26" viewBox="0 0 26 26" fill="none" xmlns="http://www.w3.org/2000/svg">
<g clip-path="url(#clip0_595_4415)">
<path fill-rule="evenodd" clip-rule="evenodd" d="M11.1096 1.50259L12.4746 2.32159C14.2061 3.34471 15.5362 4.9286 16.2446 6.81092C16.4851 6.26926 16.7711 5.74384 17.0365 5.213L18.0993 6.27576C20.4848 8.66126 22.75 12.2363 22.75 15.7083C22.75 20.3645 19.8792 23.3166 15.2858 23.8268L13.78 23.9937L14.1093 22.5149C14.3661 21.3579 14.4127 20.6018 14.3585 20.072C14.2935 19.4058 13.9772 18.8825 13.5828 18.3625C13.2058 17.8642 12.8321 17.3648 12.5331 16.8133C11.3035 17.7851 10.8268 18.6626 10.6741 19.3852C10.4791 20.3103 10.7553 21.2561 11.2602 22.2658L12.1507 24.0468L10.1725 23.8268C7.38184 23.517 4.63233 21.6526 3.549 18.9323C2.41692 16.0864 3.2175 12.6425 6.87484 9.47267C9.3015 7.36992 10.5863 4.64317 11.1096 1.50259ZM12.5526 5.07759C11.7271 7.39592 10.1422 9.50842 8.29292 11.1107C5.13934 13.8439 4.85658 16.3583 5.56292 18.1307C6.08834 19.4523 7.22259 20.5389 8.567 21.1553C8.40899 20.4254 8.40456 19.6706 8.554 18.9388C8.90717 17.264 10.1118 15.6943 12.4258 14.248L13.5926 13.5189L14.0281 14.8243C14.4094 15.9683 15.2003 16.7776 15.8188 17.7818C16.4992 18.8868 16.6292 20.1543 16.4905 21.4197C19.3288 20.7101 20.5833 18.5575 20.5833 15.7083C20.5833 13.3012 19.1317 10.9395 17.6908 9.09351C17.0972 10.4238 15.8459 10.8918 14.625 11.5028V9.75001C14.625 8.26692 14.0216 6.45776 12.5526 5.07759Z" fill="#7C838B"/>
</g>
<defs>
<clipPath id="clip0_595_4415">
<rect width="26" height="26" fill="white"/>
</clipPath>
</defs>
</svg>
