<svg width="23" height="23" viewBox="0 0 23 23" fill="none" xmlns="http://www.w3.org/2000/svg">
<path d="M17.9502 6.03418C18.3768 5.97543 18.9509 5.96593 19.5186 6.23242C20.8005 6.83426 21 8.23578 21 9.27344C21 14.2116 16.6787 18 11.625 18C6.57134 18 2.25 14.2116 2.25 9.27344C2.25004 8.23578 2.44952 6.83426 3.73145 6.23242C4.29911 5.96593 4.87318 5.97543 5.2998 6.03418C5.73238 6.09378 6.16645 6.22646 6.55176 6.36133C8.2346 6.95042 9.78855 7.77344 11.625 7.77344C13.4615 7.77344 15.0154 6.95042 16.6982 6.36133C17.0836 6.22646 17.5176 6.09378 17.9502 6.03418Z" stroke="white" stroke-width="3"/>
</svg>
