<svg width="30" height="30" viewBox="0 0 30 30" fill="none" xmlns="http://www.w3.org/2000/svg">
<path d="M20.5928 9.48242C20.9927 9.42736 21.5507 9.41501 22.1084 9.67676C23.3757 10.2717 23.5498 11.649 23.5498 12.5771C23.5495 17.1032 19.5937 20.5498 15 20.5498C10.4063 20.5498 6.45048 17.1032 6.4502 12.5771C6.4502 11.649 6.62433 10.2717 7.8916 9.67676C8.44933 9.41501 9.00732 9.42736 9.40723 9.48242C9.81346 9.5384 10.2157 9.66181 10.5625 9.7832C12.0956 10.3199 13.4165 11.0264 15 11.0264C16.5835 11.0264 17.9044 10.3199 19.4375 9.7832C19.7843 9.66181 20.1865 9.5384 20.5928 9.48242Z" stroke="white" stroke-width="3.1"/>
</svg>
