<svg width="325" height="180" viewBox="0 0 325 180" fill="none" xmlns="http://www.w3.org/2000/svg">
<path d="M31.6525 0.252808C31.6525 0.252808 55.8031 -4.61309 101.194 28.3485C125.816 17.9891 191.374 17.7136 222.589 27.2899C241.73 14.7682 276.986 -2.68882 291.321 2.51062C294.653 8.46082 302.535 26.2935 295.426 65.5653C300.004 74.064 325.217 92.8936 324.765 144.912C324.37 157.681 323.222 169.3 321.451 179.771H3.93079C0.993467 166.87 -0.124342 152.556 0.0108643 137.012C0.318324 101.667 11.325 87.7672 26.1779 69.0106L26.4044 68.7245C15.3634 28.1157 31.5805 0.375692 31.6525 0.252808Z" fill="black"/>
</svg>
